<svg width="88" height="182" viewBox="0 0 88 182" fill="none" xmlns="http://www.w3.org/2000/svg">
<path d="M5.79545 159V106.636H19.6364V115.875H20.25C21.3409 112.807 23.1591 110.386 25.7045 108.614C28.25 106.841 31.2955 105.955 34.8409 105.955C38.4318 105.955 41.4886 106.852 44.0114 108.648C46.5341 110.42 48.2159 112.83 49.0568 115.875H49.6023C50.6705 112.875 52.6023 110.477 55.3977 108.682C58.2159 106.864 61.5455 105.955 65.3864 105.955C70.2727 105.955 74.2386 107.511 77.2841 110.625C80.3523 113.716 81.8864 118.102 81.8864 123.784V159H67.3977V126.648C67.3977 123.739 66.625 121.557 65.0795 120.102C63.5341 118.648 61.6023 117.92 59.2841 117.92C56.6477 117.92 54.5909 118.761 53.1136 120.443C51.6364 122.102 50.8977 124.295 50.8977 127.023V159H36.8182V126.341C36.8182 123.773 36.0795 121.727 34.6023 120.205C33.1477 118.682 31.2273 117.92 28.8409 117.92C27.2273 117.92 25.7727 118.33 24.4773 119.148C23.2045 119.943 22.1932 121.068 21.4432 122.523C20.6932 123.955 20.3182 125.636 20.3182 127.568V159H5.79545Z" fill="#5901FF"/>
<path d="M14.2841 93.8864C12.0341 93.8864 10.1023 93.0909 8.48864 91.5C6.89773 89.8864 6.10227 87.9545 6.10227 85.7045C6.10227 83.4773 6.89773 81.5682 8.48864 79.9773C10.1023 78.3864 12.0341 77.5909 14.2841 77.5909C16.4659 77.5909 18.375 78.3864 20.0114 79.9773C21.6477 81.5682 22.4659 83.4773 22.4659 85.7045C22.4659 87.2045 22.0795 88.5795 21.3068 89.8295C20.5568 91.0568 19.5682 92.0455 18.3409 92.7955C17.1136 93.5227 15.7614 93.8864 14.2841 93.8864Z" fill="#5901FF"/>
</svg>
