<svg width="950" height="974" viewBox="0 0 950 974" fill="none" xmlns="http://www.w3.org/2000/svg">
<path d="M390.065 901.646L384.65 922.26C306.301 901.646 234.749 860.007 177.798 801.824L193.035 786.886C247.297 842.343 315.451 882.003 390.065 901.646Z" fill="#BCBEC0" fill-opacity="0.2"/>
<path d="M631.76 917.328C599.083 927.336 565.174 933.61 531.004 936L529.51 914.714C562.075 912.436 594.378 906.46 625.523 896.937L631.76 917.328Z" fill="#BCBEC0" fill-opacity="0.2"/>
<path d="M814.449 808.621C783.714 838.721 749.058 864.153 711.415 884.244L701.369 865.422C737.182 846.302 770.232 822.065 799.511 793.385L814.449 808.621Z" fill="#BCBEC0" fill-opacity="0.2"/>
<path d="M942.13 569.351C935.109 607.33 923.196 644.264 906.765 679.107L887.457 669.995C903.105 636.833 914.457 601.654 921.142 565.43L942.13 569.351Z" fill="#BCBEC0" fill-opacity="0.2"/>
<path d="M944.892 421.17L923.792 424.27C919.759 396.896 913.074 369.858 903.925 343.866C893.132 313.244 878.829 283.891 861.389 256.629C845.48 231.683 826.845 208.231 805.969 186.907L821.206 171.969C843.127 194.338 862.696 218.949 879.389 245.127C897.688 273.771 912.701 304.617 924.053 336.734C933.651 364.033 940.672 392.452 944.892 421.17Z" fill="#BCBEC0" fill-opacity="0.2"/>
<path d="M713.056 90.4829L702.936 109.267C686.205 100.23 668.691 92.2754 650.84 85.5533L658.346 65.574C677.093 72.6322 695.504 80.9973 713.056 90.4829Z" fill="#BCBEC0" fill-opacity="0.2"/>
<path d="M551.131 39.6933L548.704 60.8677C527.753 58.4777 506.467 57.5814 485.442 58.2909C465.238 58.9258 444.848 61.0544 424.906 64.5648L421.209 43.5398C442.159 39.8426 463.52 37.6394 484.77 36.9672C506.84 36.2576 529.172 37.1538 551.131 39.6933Z" fill="#BCBEC0" fill-opacity="0.2"/>
<path d="M258.199 132.27C237.398 146.461 217.643 162.669 199.456 180.445L184.518 165.208C203.601 146.536 224.327 129.544 246.174 114.644L258.199 132.27Z" fill="#BCBEC0" fill-opacity="0.2"/>
<path d="M116.328 679.816L97.2818 689.414C60.5346 616.442 44.4018 534.508 50.6383 452.537L71.9248 454.142C65.987 532.267 81.3356 610.28 116.328 679.816Z" fill="#BCBEC0" fill-opacity="0.2"/>
<path d="M499.71 1.56857C499.71 2.42749 499 3.13708 498.141 3.13708H497.768C496.909 3.13708 496.199 2.42749 496.199 1.56857C496.199 0.709623 496.909 2.79865e-05 497.768 2.79865e-05H498.141C499 0.0373815 499.71 0.709623 499.71 1.56857ZM488.133 1.75525C488.133 2.61416 487.461 3.28644 486.602 3.32376H486.228C485.369 3.36111 484.66 2.65155 484.622 1.79263C484.548 0.859006 485.295 0.22418 486.153 0.186826H486.527C487.386 0.149473 488.095 0.859037 488.133 1.71798V1.75525ZM476.556 2.20346C476.556 3.06241 475.884 3.73452 475.025 3.77188C474.166 3.80923 473.232 3.17444 473.195 2.31549C473.158 1.38189 473.643 0.709684 474.502 0.67233H474.95C475.809 0.634977 476.519 1.34454 476.556 2.20346C476.556 2.16614 476.556 2.16614 476.556 2.20346ZM464.979 2.91302C464.979 3.73462 464.344 4.44409 463.485 4.48144C462.626 4.55612 461.693 3.92126 461.618 3.06231C461.506 2.24075 461.991 1.45657 462.888 1.38189L463.336 1.34451C464.195 1.30716 464.942 1.94198 464.979 2.83825C464.979 2.83825 464.979 2.8757 464.979 2.91302ZM453.44 3.88391C453.44 4.66815 452.842 5.34039 452.058 5.45245L451.61 5.48971C450.751 5.56439 450.004 4.92962 449.929 4.07071C449.854 3.21179 450.489 2.46484 451.348 2.39016L451.684 2.35278C452.543 2.24072 453.327 2.87558 453.402 3.73449C453.44 3.77185 453.44 3.84655 453.44 3.88391ZM441.9 5.15362C441.9 5.93786 441.34 6.57272 440.556 6.68475L440.107 6.72213C439.249 6.83416 438.464 6.19934 438.39 5.34042C438.278 4.55618 438.912 3.69717 439.771 3.62246L440.107 3.5852C440.966 3.47317 441.751 4.07065 441.863 4.92956C441.9 5.00424 441.9 5.07892 441.9 5.15362ZM430.435 6.68475C430.435 7.43167 429.875 8.10388 429.091 8.21591L428.717 8.25329C427.858 8.36532 427.074 7.76776 426.962 6.90881C426.85 6.08725 427.448 5.26565 428.307 5.15362L428.68 5.11636C429.539 5.00433 430.323 5.60177 430.435 6.46069C430.398 6.5354 430.435 6.61007 430.435 6.68475ZM418.97 8.51474C418.97 9.26162 418.448 9.93371 417.663 10.0458L417.29 10.1205C416.431 10.2699 415.647 9.70974 415.497 8.85083C415.348 8.02923 415.908 7.20761 416.767 7.05822L417.141 6.98358C417.999 6.8342 418.784 7.39438 418.933 8.25329C418.97 8.32797 418.97 8.40271 418.97 8.51474ZM407.58 10.5686C407.58 11.3155 407.057 11.9504 406.311 12.0998L405.937 12.1744C405.078 12.3611 404.257 11.801 404.107 10.9421C403.958 10.0832 404.481 9.26153 405.34 9.11215L405.713 9.0375C406.572 8.85077 407.394 9.41089 407.543 10.2698C407.543 10.3819 407.58 10.494 407.58 10.5686ZM396.228 12.9586C396.228 13.7055 395.705 14.3404 394.958 14.4898C394.099 14.6765 393.091 14.1911 392.904 13.3695C392.68 12.5479 393.053 11.7264 393.912 11.5396L394.323 11.4276C395.182 11.2409 396.003 11.801 396.153 12.6599C396.228 12.7346 396.228 12.8466 396.228 12.9586ZM384.837 15.6475C384.837 16.3197 384.427 16.9172 383.754 17.104L383.381 17.216C382.559 17.4401 381.7 16.9173 381.476 16.0957C381.252 15.2741 381.775 14.4152 382.597 14.1911C382.597 14.1911 382.783 14.1537 382.821 14.1537C383.642 13.967 384.613 14.4152 384.8 15.2741C384.837 15.3488 384.837 15.4981 384.837 15.6475ZM373.709 18.4857C373.709 19.1579 373.261 19.7927 372.588 19.9795L372.178 20.0915C371.356 20.3155 370.497 19.7928 370.273 18.9712C370.049 18.1496 370.572 17.2906 371.393 17.0666L371.729 16.9919C372.551 16.7305 373.447 17.216 373.671 18.0376C373.709 18.1869 373.709 18.3363 373.709 18.4857ZM362.58 21.6226C362.58 22.2948 362.132 22.9297 361.46 23.1164L361.086 23.2284C360.265 23.4898 359.368 23.0044 359.144 22.1828C358.92 21.3612 359.368 20.465 360.19 20.2409L360.563 20.1289C361.385 19.8675 362.281 20.3529 362.505 21.1745C362.543 21.3612 362.58 21.5106 362.58 21.6226ZM351.489 25.0957C351.489 25.7678 351.078 26.3655 350.406 26.5895L350.032 26.7016C349.211 26.963 348.314 26.5148 348.053 25.6932C347.791 24.8716 348.24 23.9753 349.061 23.7139L349.435 23.6019C350.256 23.3405 351.153 23.7887 351.414 24.6103C351.489 24.7596 351.489 24.9089 351.489 25.0957ZM340.509 28.7928C340.509 29.4651 340.098 30.0626 339.426 30.2866C338.605 30.5854 337.559 30.212 337.26 29.3904C336.962 28.5688 337.223 27.7472 338.045 27.4484L338.455 27.2991C339.277 27.0377 340.173 27.4858 340.435 28.3074C340.472 28.4567 340.509 28.6061 340.509 28.7928ZM329.642 32.7514C329.642 33.3862 329.231 33.9837 328.596 34.2078C327.775 34.5065 326.729 34.2078 326.393 33.3862C326.057 32.5646 326.318 31.743 327.103 31.4069L327.513 31.2576C328.335 30.9589 329.231 31.407 329.53 32.1912C329.605 32.378 329.642 32.5647 329.642 32.7514ZM318.887 36.934C318.887 37.5315 318.551 38.129 317.953 38.3531L317.542 38.5025C316.721 38.8012 315.824 38.4277 315.526 37.6061C315.19 36.8219 315.6 35.8884 316.422 35.5896L316.721 35.4775C317.505 35.1414 318.439 35.5148 318.775 36.2991C318.812 36.5231 318.887 36.7472 318.887 36.934ZM308.206 41.4154C308.206 42.0129 307.87 42.6103 307.273 42.8344L306.899 42.9838C306.115 43.3199 305.181 42.9464 304.845 42.1622C304.509 41.378 304.882 40.4444 305.667 40.1083L306.04 39.9589C306.824 39.6228 307.758 39.9962 308.094 40.7805C308.169 41.0045 308.206 41.2286 308.206 41.4154ZM297.675 46.1207C297.675 46.7182 297.339 47.2784 296.779 47.5398L296.443 47.6892C295.658 48.0627 294.725 47.7266 294.351 46.9423C293.978 46.1581 294.314 45.2245 295.098 44.851L295.472 44.6643C296.256 44.2909 297.189 44.6643 297.563 45.4485C297.638 45.71 297.675 45.934 297.675 46.1207ZM287.256 51.1249C287.256 51.7224 286.92 52.2826 286.36 52.544C285.575 52.9174 284.492 52.6934 284.082 51.9465C283.708 51.1622 283.857 50.3034 284.604 49.93L284.978 49.7432C285.762 49.3697 286.696 49.7059 287.069 50.4901C287.181 50.6395 287.256 50.9008 287.256 51.1249ZM276.949 56.3532C276.949 56.9134 276.65 57.4362 276.127 57.735L275.754 57.9217C274.969 58.2951 274.036 57.9964 273.662 57.2495C273.289 56.5026 273.588 55.5316 274.335 55.1582L274.633 55.0088C275.38 54.598 276.351 54.8594 276.762 55.6437C276.874 55.8304 276.949 56.0918 276.949 56.3532ZM266.754 61.8055C266.754 62.3657 266.455 62.8885 265.932 63.1872L265.596 63.3739C264.849 63.7847 263.878 63.5234 263.467 62.7391C263.056 61.9922 263.318 61.0213 264.102 60.6105L264.438 60.4238C265.185 60.013 266.156 60.2743 266.567 61.0586C266.679 61.2826 266.754 61.5441 266.754 61.8055ZM256.708 67.5193C256.708 68.0421 256.446 68.5648 255.924 68.8636L255.588 69.0504C254.841 69.4985 253.87 69.2371 253.459 68.4903C253.011 67.7434 253.272 66.7724 254.019 66.3616L254.355 66.1748C255.102 65.7266 256.073 65.9882 256.484 66.735C256.633 66.9591 256.708 67.2578 256.708 67.5193ZM246.774 73.457C246.774 73.9799 246.513 74.5027 245.99 74.8015C245.243 75.2497 244.16 75.1375 243.675 74.3906C243.226 73.6438 243.301 72.7849 244.011 72.3368L244.384 72.1127C245.131 71.6645 246.102 71.9259 246.513 72.6728C246.7 72.9343 246.774 73.1956 246.774 73.457ZM236.99 79.6563C236.99 80.1417 236.728 80.6646 236.28 80.9633L235.944 81.1874C235.235 81.6356 234.264 81.4488 233.778 80.7393C233.293 80.0297 233.517 79.0587 234.264 78.5732L234.562 78.3866C235.272 77.9011 236.243 78.0878 236.728 78.8347C236.915 79.0587 236.99 79.3575 236.99 79.6563ZM227.392 86.0796C227.392 86.565 227.168 87.0879 226.72 87.3866L226.421 87.6107C225.712 88.0962 224.741 87.9094 224.255 87.1999C223.77 86.4903 223.957 85.5194 224.666 85.0339L225.002 84.8098C225.712 84.3244 226.683 84.511 227.168 85.2206C227.28 85.482 227.392 85.7808 227.392 86.0796ZM217.907 92.7269C217.907 93.2124 217.683 93.6978 217.235 93.9966C216.525 94.5194 215.405 94.4448 214.919 93.7725C214.396 93.063 214.396 92.2041 215.106 91.6813L215.442 91.4572C216.152 90.9717 217.123 91.1211 217.608 91.8306C217.795 92.0921 217.907 92.4282 217.907 92.7269ZM208.571 99.5983C208.571 100.046 208.347 100.532 207.973 100.831L207.637 101.092C206.927 101.615 205.956 101.466 205.434 100.756C204.911 100.046 205.06 99.0755 205.77 98.5527L206.031 98.366C206.703 97.8432 207.712 97.9551 208.235 98.6273C208.496 98.9261 208.571 99.2622 208.571 99.5983ZM199.421 106.694C199.421 107.142 199.234 107.59 198.824 107.926L198.525 108.188C197.853 108.71 196.844 108.598 196.322 107.926C195.799 107.254 195.911 106.246 196.583 105.723L196.882 105.499C197.554 104.976 198.525 105.051 199.085 105.76C199.309 106.022 199.421 106.358 199.421 106.694ZM190.458 114.013C190.458 114.462 190.272 114.91 189.861 115.246C189.189 115.806 188.068 115.843 187.508 115.171C186.948 114.499 186.911 113.64 187.546 113.08L187.882 112.818C188.554 112.296 189.525 112.37 190.085 113.08C190.346 113.304 190.458 113.677 190.458 114.013ZM181.645 121.52C181.645 121.968 181.458 122.379 181.122 122.677L180.823 122.939C180.189 123.499 179.18 123.424 178.62 122.789C178.06 122.154 178.135 121.146 178.77 120.586L179.031 120.325C179.666 119.764 180.674 119.802 181.234 120.474C181.533 120.773 181.645 121.146 181.645 121.52ZM173.018 129.25C173.018 129.661 172.832 130.109 172.496 130.408L172.234 130.669C171.599 131.267 170.591 131.229 170.031 130.594C169.433 129.959 169.471 128.951 170.106 128.391L170.404 128.13C171.039 127.532 172.048 127.607 172.608 128.242C172.906 128.503 173.018 128.877 173.018 129.25ZM164.579 137.204C164.579 137.615 164.429 138.026 164.093 138.362C163.458 138.96 162.338 139.072 161.74 138.474C161.143 137.839 161.031 136.98 161.628 136.383L161.927 136.084C162.562 135.486 163.533 135.524 164.13 136.159C164.429 136.42 164.579 136.794 164.579 137.204ZM156.325 145.308C156.325 145.682 156.176 146.092 155.877 146.391L155.579 146.69C154.981 147.287 153.973 147.287 153.375 146.69C152.778 146.092 152.778 145.084 153.375 144.487L153.637 144.225C154.234 143.59 155.242 143.59 155.84 144.188C156.176 144.487 156.325 144.897 156.325 145.308ZM148.259 153.636C148.259 154.009 148.11 154.383 147.848 154.682L147.587 154.98C146.989 155.615 146.018 155.653 145.383 155.055C144.749 154.458 144.711 153.449 145.309 152.852L145.57 152.59C146.168 151.956 147.139 151.918 147.773 152.516C148.11 152.815 148.259 153.225 148.259 153.636ZM140.417 162.188C140.417 162.561 140.305 162.935 140.043 163.234L139.744 163.57C139.147 164.205 138.176 164.242 137.541 163.644C136.906 163.047 136.869 162.076 137.466 161.441L137.69 161.18C138.251 160.545 139.259 160.47 139.894 161.03C140.23 161.292 140.417 161.74 140.417 162.188ZM132.761 170.889C132.761 171.263 132.649 171.636 132.387 171.935C131.827 172.607 130.707 172.831 130.072 172.271C129.4 171.711 129.213 170.852 129.773 170.217L130.035 169.918C130.595 169.283 131.603 169.209 132.238 169.769C132.574 169.993 132.761 170.441 132.761 170.889ZM125.292 179.777C125.292 180.113 125.18 180.487 124.919 180.786C124.396 181.458 123.275 181.719 122.603 181.159C121.931 180.636 121.707 179.777 122.267 179.105L122.528 178.769C123.089 178.097 124.06 178.022 124.732 178.582C125.105 178.881 125.292 179.329 125.292 179.777ZM118.085 188.815C118.085 189.151 117.972 189.487 117.748 189.786L117.487 190.084C116.964 190.757 115.956 190.869 115.284 190.346C114.611 189.823 114.499 188.815 115.022 188.142L115.246 187.844C115.769 187.172 116.74 187.022 117.45 187.545C117.86 187.881 118.085 188.367 118.085 188.815ZM111.064 198.076C111.064 198.412 110.952 198.748 110.728 199.047C110.205 199.757 109.122 200.055 108.45 199.533C107.74 199.01 107.479 198.188 108.001 197.479L108.263 197.143C108.786 196.47 109.757 196.321 110.466 196.844C110.84 197.143 111.064 197.591 111.064 198.076ZM104.23 207.45C104.23 207.748 104.155 208.085 103.931 208.346L103.707 208.645C103.221 209.354 102.25 209.504 101.541 209.018C100.831 208.533 100.682 207.524 101.167 206.852L101.391 206.553C101.877 205.844 102.848 205.695 103.557 206.18C104.006 206.479 104.23 206.964 104.23 207.45ZM97.657 217.01C97.657 217.309 97.5823 217.607 97.3955 217.869L97.1715 218.168C96.686 218.877 95.715 219.101 95.0055 218.616C94.2959 218.13 94.1092 217.159 94.5574 216.45L94.7814 216.114C95.2669 215.404 96.2379 215.217 96.9474 215.703C97.4329 216.002 97.657 216.524 97.657 217.01ZM91.3084 226.72C91.3084 227.018 91.2337 227.28 91.0843 227.541L90.8602 227.877C90.4121 228.624 89.4411 228.811 88.6942 228.363C87.9473 227.915 87.7606 226.944 88.2088 226.197L88.4328 225.861C88.881 225.114 89.8519 224.927 90.5988 225.375C91.0843 225.711 91.3084 226.234 91.3084 226.72ZM85.2212 236.616C85.2212 236.877 85.1465 237.139 84.9971 237.4L84.7731 237.774C84.3249 238.52 83.354 238.745 82.6071 238.296C81.8602 237.848 81.6361 236.877 82.0842 236.13L82.271 235.832C82.7191 235.085 83.6527 234.823 84.3996 235.271C84.9224 235.533 85.2212 236.056 85.2212 236.616ZM79.3207 246.624C79.3207 246.886 79.246 247.147 79.0967 247.408C78.6859 248.155 77.6402 248.603 76.856 248.155C76.1091 247.707 75.7356 246.923 76.1838 246.176L76.3705 245.803C76.8186 245.056 77.7523 244.794 78.4991 245.242C79.0593 245.541 79.3207 246.064 79.3207 246.624ZM73.6817 256.745C73.6817 257.006 73.607 257.23 73.495 257.454L73.3082 257.828C72.8975 258.575 71.9265 258.873 71.1796 258.463C70.4327 258.052 70.1339 257.081 70.5447 256.334L70.6941 256.035C71.1049 255.251 72.0385 254.952 72.7854 255.363C73.3829 255.662 73.6817 256.184 73.6817 256.745ZM68.304 267.052C68.304 267.313 68.2294 267.537 68.1173 267.799C67.7439 268.583 66.6982 269.031 65.9513 268.658C65.1671 268.284 64.7937 267.463 65.1671 266.716L65.3538 266.342C65.7646 265.595 66.6982 265.297 67.4825 265.707C68.0053 265.931 68.304 266.492 68.304 267.052ZM63.1505 277.471C63.1505 277.695 63.1131 277.919 63.0011 278.143L62.8144 278.517C62.4409 279.301 61.5073 279.637 60.7231 279.226C59.9388 278.853 59.6401 277.919 60.0135 277.135L60.1629 276.799C60.5364 276.015 61.47 275.678 62.2542 276.052C62.8144 276.313 63.1505 276.873 63.1505 277.471ZM58.2584 288.002C58.2584 288.226 58.221 288.45 58.109 288.674C57.7729 289.459 56.7646 289.981 55.9803 289.645C55.1961 289.309 54.7479 288.525 55.1214 287.741L55.3081 287.367C55.6816 286.583 56.6152 286.247 57.3994 286.62C57.9222 286.844 58.2584 287.405 58.2584 288.002ZM53.6276 298.645C53.6276 298.832 53.5903 299.056 53.5156 299.243L53.3662 299.616C53.0301 300.401 52.0965 300.774 51.3122 300.438C50.528 300.102 50.1546 299.168 50.4907 298.384L50.64 298.048C50.9761 297.264 51.8724 296.853 52.694 297.189C53.2541 297.45 53.6276 298.048 53.6276 298.645ZM49.2583 309.401C49.2583 309.587 49.2209 309.774 49.1462 309.961L48.9969 310.334C48.6981 311.156 47.7645 311.529 46.9802 311.231C46.1587 310.932 45.7852 309.998 46.084 309.214L46.2334 308.878C46.5321 308.056 47.4657 307.645 48.25 307.981C48.8475 308.206 49.2583 308.766 49.2583 309.401ZM45.113 320.268C45.113 320.455 45.0757 320.641 45.001 320.828C44.7022 321.65 43.7686 322.247 42.947 321.948C42.1254 321.65 41.64 320.94 41.9387 320.118L42.0881 319.708C42.3869 318.886 43.2831 318.475 44.1047 318.812C44.7396 319.073 45.113 319.67 45.113 320.268ZM41.2665 331.247C41.2665 331.397 41.2292 331.583 41.1918 331.733L41.0798 332.106C40.8184 332.928 39.9221 333.376 39.1005 333.077C38.2789 332.778 37.8682 331.919 38.1296 331.098L38.2416 330.724C38.503 329.903 39.3993 329.455 40.2209 329.753C40.8557 329.978 41.2665 330.612 41.2665 331.247ZM37.6814 342.339C37.6814 342.488 37.6441 342.675 37.6067 342.824C37.3453 343.646 36.4117 344.281 35.5901 344.019C34.7686 343.758 34.2457 343.086 34.5071 342.227L34.6192 341.853C34.8806 341.032 35.7769 340.583 36.5984 340.845C37.2333 341.032 37.6814 341.666 37.6814 342.339ZM34.3578 353.43C34.3578 353.579 34.3204 353.729 34.2831 353.878C34.059 354.7 33.1254 355.372 32.3038 355.148C31.4822 354.924 30.9221 354.252 31.1835 353.393L31.2955 353.019C31.5569 352.198 32.4158 351.712 33.2374 351.973C33.9096 352.123 34.3578 352.758 34.3578 353.43ZM31.2955 364.596C31.2955 364.708 31.2955 364.857 31.2582 364.969L31.1461 365.38C30.9221 366.202 30.0631 366.725 29.2415 366.501C28.42 366.277 27.8971 365.418 28.1212 364.596L28.1959 364.26C28.3826 363.401 29.2416 362.916 30.1005 363.102C30.81 363.252 31.2955 363.886 31.2955 364.596ZM28.532 375.874C28.532 375.986 28.532 376.098 28.4947 376.248L28.42 376.621C28.2332 377.48 27.3743 378.003 26.5527 377.816C25.6938 377.629 25.171 376.808 25.3577 375.949L25.4324 375.575C25.6191 374.716 26.478 374.194 27.2996 374.418C28.0465 374.492 28.532 375.165 28.532 375.874ZM26.0299 387.19C26.0299 387.302 26.0299 387.414 25.9926 387.526C25.8058 388.385 24.9469 389.094 24.1253 388.945C23.2664 388.758 22.7062 388.086 22.8556 387.264L22.9303 386.854C23.117 385.995 23.9386 385.472 24.7975 385.658C25.5071 385.808 26.0299 386.443 26.0299 387.19ZM23.7892 398.542C23.7892 398.617 23.7892 398.729 23.7519 398.804L23.6772 399.215C23.5278 400.074 22.7062 400.634 21.8473 400.484C20.9884 400.335 20.4282 399.476 20.5776 398.654L20.6523 398.281C20.8017 397.422 21.6232 396.862 22.4448 397.011C23.229 397.123 23.7892 397.795 23.7892 398.542ZM21.81 409.97C21.81 410.045 21.81 410.119 21.7726 410.231L21.6979 410.605C21.5486 411.464 20.7643 412.024 19.9054 411.912C19.0464 411.762 18.4863 410.978 18.5983 410.119L18.673 409.746C18.8224 408.887 19.6066 408.327 20.4655 408.439C21.2871 408.551 21.81 409.223 21.81 409.97ZM20.1294 421.435C20.1294 421.509 20.1294 421.584 20.1294 421.659L20.0921 422.032C19.9801 422.891 19.1958 423.489 18.3369 423.377C17.478 423.265 16.8805 422.48 16.9925 421.621L17.0298 421.211C17.1419 420.352 17.9261 419.754 18.7851 419.866C19.5693 419.978 20.1294 420.65 20.1294 421.435ZM18.7477 432.937C18.7477 432.974 18.7477 433.049 18.7477 433.086L18.7103 433.497C18.5983 434.356 17.8514 434.991 16.9925 434.879C16.1336 434.767 15.4987 434.02 15.6107 433.161L15.6481 432.787C15.7228 431.928 16.507 431.294 17.3659 431.368C18.1128 431.48 18.7477 432.153 18.7477 432.937ZM17.59 444.476C17.59 444.514 17.59 444.551 17.59 444.626L17.5527 444.999C17.478 445.858 16.7311 446.493 15.8721 446.418C15.0132 446.343 14.3784 445.559 14.4531 444.738L14.4904 444.364C14.5651 443.505 15.312 442.87 16.1709 442.945C16.9925 442.982 17.59 443.655 17.59 444.476ZM16.7311 456.016C16.7311 456.053 16.7311 456.09 16.7311 456.128C16.6937 456.987 15.9469 457.846 15.0506 457.771C14.1917 457.734 13.5194 457.173 13.5568 456.314L13.5941 455.904C13.6688 455.045 14.4157 454.373 15.2746 454.447C16.0962 454.522 16.7311 455.232 16.7311 456.016ZM16.1336 467.593V467.63V468.041C16.0962 468.9 15.3493 469.572 14.4904 469.535C13.6315 469.497 12.9219 468.676 12.9966 467.891V467.518C13.034 466.659 13.7435 465.987 14.6024 465.987C15.4614 466.062 16.1336 466.771 16.1336 467.593Z" fill="#12AA59" fill-opacity="0.2"/>
<path d="M14.191 486.899C17.7014 478.086 23.6392 467.219 29.7637 460.497L14.7512 465.501L0 459.75C5.78842 466.733 11.1287 477.936 14.191 486.899Z" fill="#12AA59" fill-opacity="0.2"/>
<path d="M984.481 505.796C974.547 765.042 761.197 972.193 499.523 972.193C403.472 972.193 313.92 944.259 238.558 896.122" stroke="#12AA59" stroke-opacity="0.2" stroke-width="3.1321" stroke-linecap="round" stroke-linejoin="round" stroke-dasharray="0.39 0.39"/>
<path d="M95.566 491.228C95.566 491.192 95.566 491.12 95.566 491.084" stroke="#12AA59" stroke-opacity="0.2" stroke-width="7.46893" stroke-linecap="round" stroke-linejoin="round"/>
<path d="M96.015 472.181C105.949 258.382 282.44 88.1282 498.665 88.0908C718.102 88.0908 896.573 263.424 901.689 481.629" stroke="#12AA59" stroke-opacity="0.2" stroke-width="7.46893" stroke-linecap="round" stroke-linejoin="round" stroke-dasharray="0.31 0.31"/>
<path d="M901.798 491.084C901.798 491.12 901.798 491.192 901.798 491.228" stroke="#12AA59" stroke-opacity="0.2" stroke-width="7.46893" stroke-linecap="round" stroke-linejoin="round"/>
<path opacity="0.4" d="M855.866 487.569C855.866 290.688 696.255 131.114 499.411 131.114C302.567 131.114 142.956 290.725 142.956 487.569C142.956 684.413 302.567 844.024 499.411 844.024C696.255 844.024 855.866 684.45 855.866 487.569ZM146.541 487.569C146.541 292.705 304.547 134.699 499.411 134.699C694.276 134.699 852.281 292.705 852.281 487.569C852.281 682.434 694.276 840.439 499.411 840.439C304.547 840.439 146.541 682.434 146.541 487.569Z" fill="url(#paint0_linear_24_226)" fill-opacity="0.2"/>
<path opacity="0.7" d="M928.986 487.57C928.986 250.32 736.623 57.9946 499.41 57.9946C262.159 57.9946 69.8344 250.32 69.8344 487.57C69.8344 724.821 262.159 917.146 499.41 917.146C736.661 917.146 928.986 724.821 928.986 487.57ZM74.129 487.57C74.129 252.71 264.549 62.3265 499.41 62.2892C734.271 62.2892 924.691 252.71 924.691 487.57C924.691 722.431 734.271 912.814 499.41 912.814C264.549 912.851 74.129 722.431 74.129 487.57Z" fill="#BCBEC0" fill-opacity="0.2"/>
<path d="M959.123 498.886C948.854 746.332 744.989 943.811 494.967 943.811C241.732 943.811 35.8139 741.141 30.5483 489.139" stroke="#12AA59" stroke-opacity="0.2" stroke-width="5.51917" stroke-linecap="round" stroke-linejoin="round" stroke-dasharray="0.28 0.28"/>
<path d="M30.4353 479.433C30.4353 479.397 30.4353 479.326 30.4353 479.29" stroke="#12AA59" stroke-opacity="0.2" stroke-width="5.51917" stroke-linecap="round" stroke-linejoin="round"/>
<g opacity="0.5">
<g opacity="0.5">
<path opacity="0.5" d="M499.519 122.304V153.823C439.283 153.823 380.241 170.068 328.817 200.84L312.647 173.802C368.962 140.117 433.569 122.304 499.519 122.304Z" fill="#BCBEC0" fill-opacity="0.2"/>
</g>
<g opacity="0.6">
<path opacity="0.6" d="M245.801 271.122C229.369 290.429 215.141 311.604 203.527 334.048L175.555 319.558C188.253 294.985 203.825 271.832 221.825 250.695L245.801 271.122Z" fill="#BCBEC0" fill-opacity="0.2"/>
</g>
<g opacity="0.5">
<path opacity="0.5" d="M179.776 393.275C170.926 423.561 166.444 455.043 166.444 486.898H134.925C134.925 452.055 139.855 417.586 149.527 384.424L179.776 393.275Z" fill="#BCBEC0" fill-opacity="0.2"/>
</g>
<g opacity="0.5">
<path opacity="0.5" d="M226.831 678.178L201.063 696.29C183.063 670.671 168.424 642.887 157.594 613.646L187.134 602.704C197.067 629.406 210.399 654.8 226.831 678.178Z" fill="#BCBEC0" fill-opacity="0.2"/>
</g>
<g opacity="0.6">
<path opacity="0.6" d="M499.523 819.94V851.458C474.166 851.458 448.809 848.844 424.236 843.653C397.273 837.977 370.908 829.238 345.924 817.587C324.675 807.691 304.285 795.666 285.239 781.848L303.762 756.379C321.127 769.039 339.799 780.018 359.181 789.056C382.036 799.661 406.086 807.691 430.696 812.844C453.178 817.55 476.332 819.94 499.523 819.94Z" fill="#BCBEC0" fill-opacity="0.2"/>
</g>
<g opacity="0.5">
<path opacity="0.5" d="M653.306 817.513C638.629 824.347 623.355 830.247 607.895 835.065L598.521 804.965C612.638 800.558 626.567 795.181 639.974 788.944L653.306 817.513Z" fill="#BCBEC0" fill-opacity="0.2"/>
</g>
<g opacity="0.6">
<path opacity="0.6" d="M800.405 692.78C790.658 706.971 779.828 720.601 768.214 733.261C756.114 746.444 742.931 758.842 729.039 770.12L709.172 745.66C721.869 735.353 733.931 724 744.985 711.938C755.591 700.361 765.487 687.925 774.413 674.929L800.405 692.78Z" fill="#BCBEC0" fill-opacity="0.2"/>
</g>
<g opacity="0.5">
<path opacity="0.5" d="M864.08 486.897C864.08 508.483 862.176 530.105 858.404 551.205L827.37 545.678C830.806 526.408 832.524 506.615 832.524 486.897H864.08Z" fill="#BCBEC0" fill-opacity="0.2"/>
</g>
<g opacity="0.6">
<path opacity="0.6" d="M773.667 246.623L749.99 267.387C709.882 221.639 658.234 187.805 600.612 169.432L610.172 139.407C673.284 159.498 729.787 196.581 773.667 246.623Z" fill="#BCBEC0" fill-opacity="0.2"/>
</g>
</g>
<defs>
<linearGradient id="paint0_linear_24_226" x1="499.414" y1="844.02" x2="499.414" y2="131.112" gradientUnits="userSpaceOnUse">
<stop stop-color="#F6F7F8"/>
<stop offset="1" stop-color="#BCBEC0"/>
</linearGradient>
</defs>
</svg>
