<svg width="318" height="53" viewBox="0 0 318 53" fill="none" xmlns="http://www.w3.org/2000/svg">
<path d="M6.08384 29.6432C22.4516 32.1193 39.4652 30.8486 55.9752 31.1615C71.5517 31.4567 87.0989 30.49 102.675 30.4307C120.064 30.3645 137.439 30.3391 154.826 30.4943C186.448 30.7766 218.068 29.0088 249.672 28.125C259.295 27.8559 268.953 28.4768 278.562 27.5626C280.933 27.3372 288.036 27.3515 285.682 26.9954C283.329 26.6394 281.111 26.852 278.695 26.4865C276.105 26.0946 273.222 26.1691 270.602 26.2367C268.208 26.2985 265.875 25.5152 263.454 25.5816C259.484 25.6907 255.544 25.5598 251.583 25.5519C243.995 25.5369 236.5 26.5506 228.943 26.664C203.222 27.0502 177.751 30.9307 152.078 31.7534C146.906 31.9191 141.497 31.9239 136.365 32.3605C132.492 32.69 128.879 31.882 125.05 32.0799C117.908 32.4489 110.882 34.2005 103.756 34.5529C96.2566 34.9238 88.7566 35.2249 81.2908 36.1178C69.7962 37.4925 58.2772 39.0474 46.7274 39.3543C39.8919 39.536 33.0365 38.1054 26.3034 37.0868C22.4632 36.5059 18.623 35.925 14.7828 35.344C12.6538 35.0219 14.3111 34.0651 13.5401 32.6896C12.6014 31.015 11.7337 31.5941 14.1975 31.9668C19.6961 32.7987 23.8543 34.3375 28.866 36.6523C33.8039 38.933 39.7522 40.3261 45.2212 40.2531C47.4552 40.2233 52.0192 40.7141 54.1316 39.9263C55.6306 39.3673 57.1916 39.8848 58.7068 39.6745C62.3439 39.1696 60.6175 39.6405 57.5005 38.7916C54.4205 37.9528 51.2773 37.3576 48.1854 36.5603C46.4509 36.1131 44.871 35.052 43.1379 34.7005C40.6057 34.187 38.3688 32.8829 35.7983 32.494C35.1213 32.3916 33.8264 32.1957 35.3815 32.431C39.7498 33.0918 44.1426 32.9811 48.5444 32.7779C52.7521 32.5837 56.9242 32.4834 61.1119 33.0348C62.8523 33.2639 62.063 33.2296 60.6799 33.2739C51.2166 33.5771 41.8268 34.9974 32.353 35.1397C32.1943 35.142 30.0058 34.9493 31.1443 35.0786C34.0011 35.4031 37.0329 34.5484 39.8588 34.2349C42.3841 33.9549 44.9975 33.6016 47.5443 33.7533C49.8016 33.8877 44.4381 33.7523 44.1336 33.755C37.4734 33.8141 30.9703 33.408 24.3917 32.4128C23.7354 32.3135 26.3739 32.4537 26.6099 32.4438C30.6434 32.2747 34.715 31.8808 38.7372 32.3905C39.8523 32.5318 43.1827 33.063 42.0713 32.8949C39.3425 32.4821 36.6136 32.0693 33.8848 31.6565C33.1629 31.5472 27.0503 31.5469 29.3602 31.9768C35.033 33.0327 40.8646 33.2604 46.5746 34.1242C47.522 34.2675 54.5992 35.1991 50.0208 35.4982C49.0147 35.5639 40.7447 36.905 40.8454 36.9725C43.4627 38.7248 49.1976 38.3578 52.3182 38.8298C52.4105 38.8438 54.209 39.0936 53.528 39.2869C50.7265 40.0818 46.5871 39.1772 43.6802 39.1674C41.207 39.1591 38.7445 38.9934 36.2725 39.0212C34.4581 39.0416 40.1474 38.168 40.5805 38.1199C44.6535 37.6682 48.7711 37.2183 52.8654 37.0247C54.7212 36.9369 60.2762 37.2932 58.4392 37.0153C52.287 36.0846 46.0629 35.6911 39.9311 34.7635C38.4964 34.5465 39.3046 34.6688 40.2586 34.8131C45.8409 35.6576 51.4336 34.4893 56.9988 34.0569C63.1783 33.5767 81.7213 35.0563 75.5929 34.1292C71.8838 33.5681 68.1132 32.7681 64.3503 32.7634C62.4214 32.761 58.6817 32.4604 56.9193 33.3749C56.4288 33.6294 59.4095 33.7584 59.4794 33.7622C65.8553 34.1118 72.1922 32.8384 78.4645 31.8535C81.3537 31.3999 84.2179 30.501 87.1584 30.9458C88.1727 31.0993 80.8946 32.8775 80.1616 33.1151C73.9582 35.1263 67.9592 37.7157 61.7052 39.58C61.1144 39.7561 53.2461 41.5744 56.3538 41.5414C62.9639 41.4711 69.7152 39.9439 76.2625 39.1634C85.2445 38.0927 94.3383 37.0205 103.396 36.9344C104.729 36.9217 107.686 37.1375 104.128 36.9234C94.2825 36.3309 84.6655 38.2381 74.9402 39.4506C70.3012 40.0289 65.652 40.411 61.0128 40.9368C59.2099 41.1411 60.5036 40.7606 61.424 40.6336C76.7129 38.5236 91.5925 34.4039 107.072 33.1666C107.367 33.143 111.804 33.0299 109.609 32.6978C99.782 31.2112 90.0659 32.481 80.2447 33.3713C72.7326 34.0522 50.0881 33.9272 57.6285 34.1217C66.4298 34.3486 74.8899 30.8723 83.7549 31.1009C87.8656 31.2069 80.3354 31.1605 79.905 31.1884C70.3686 31.806 60.8818 34.375 51.4407 35.7739C48.0362 36.2783 44.4955 37.0846 41.0403 37.0933C38.5009 37.0997 46.12 37.0166 48.6554 36.875C55.137 36.5132 74.5757 38.1228 68.1229 37.4144C52.4284 35.6914 36.4802 38.9259 20.8937 36.8166C18.9329 36.5512 15.7535 36.6025 14.1279 35.2449C13.7798 34.9543 13.192 33.6482 14.0689 33.6222C19.1374 33.4715 25.9672 34.8572 30.6629 36.6501C30.6977 36.6634 34.2159 38.3047 32.8788 38.5078C29.6067 39.005 25.1041 37.0741 22.0617 36.1406C15.5816 34.1524 9.67646 30.7348 3.05565 29.7333C-0.696219 29.1657 4.49024 32.7352 5.74381 33.7026C7.0275 34.6932 6.80936 35.7938 7.70926 37.0145C8.2615 37.7636 6.37479 34.0717 6.78046 34.4989C8.83813 36.6655 13.824 44.1519 11.9789 41.8016C9.99599 39.2757 7.44939 37.273 5.38956 34.8366C3.7437 32.8898 9.71964 37.5687 11.6337 39.2525C14.7842 42.0239 10.1552 37.2739 9.19122 36.4774C6.59429 34.3316 9.00998 37.539 9.69051 38.4104C10.9122 39.9747 12.3562 41.5542 14.3757 41.8597C16.3352 42.1561 11.1362 38.5068 10.4085 38.0927C7.9228 36.6784 15.9115 39.6612 18.6187 40.5832C21.2066 41.4645 23.8192 42.0866 26.4346 42.8618C28.7622 43.5516 29.7624 44.1842 26.5132 43.1477C23.5065 42.1886 20.5722 41.1858 17.4469 40.68C16.6922 40.5578 12.4606 40.5432 12.0695 39.5924C12.0362 39.5114 16.2174 39.7097 16.6159 39.7321C21.4423 40.003 26.2303 40.9125 31.0051 41.6348C31.9577 41.7789 34.8155 42.2112 33.8629 42.0671C29.2647 41.3715 24.8501 40.2101 20.4656 38.6397C16.7373 37.3043 13.1786 35.6476 9.69033 33.7819C7.80918 32.7759 8.012 32.6754 9.96527 32.9709C14.378 33.6385 20.6247 33.3793 24.6666 35.2253C29.4319 37.4018 14.2027 34.2081 9.11372 32.9639C7.92374 32.673 4.28867 32.1122 5.49992 32.2954C8.32294 32.7225 10.998 33.6014 13.7434 34.3646C25.5909 37.6584 37.6795 40.385 49.642 43.2361C50.3428 43.4031 56.6205 44.8989 54.4845 44.6386C48.7332 43.9375 43.0525 43.6796 37.2813 44.2285C33.3092 44.6064 21.3723 44.0143 25.3174 44.6111C31.4869 45.5444 37.7111 45.9379 43.885 46.8718C44.0367 46.8948 46.8252 47.3166 45.1948 47.07C40.7995 46.4051 36.4094 45.6746 31.9891 45.1941C25.8575 44.5276 17.9789 44.8452 12.1343 42.5864C7.63158 40.8461 31.2216 45.5043 26.4486 44.7822C22.8565 44.2388 19.2644 43.6954 15.6723 43.152C8.30578 42.0377 30.4938 44.7569 37.9337 45.1494C44.7668 45.5099 51.7059 45.4765 58.5126 46.1919C61.4077 46.4962 46.9242 47.1664 49.7925 46.6693C53.5049 46.0259 57.1497 45.0264 60.8241 44.1969C67.7744 42.6279 88.9442 39.7172 81.8438 40.3122C69.7236 41.3279 33.4327 44.8888 45.4618 43.0909C50.1416 42.3915 54.7719 41.491 59.4793 41.0093C60.1574 40.94 62.6219 40.814 59.435 40.6981C52.448 40.4441 45.4495 40.3797 38.4594 40.2655C36.5719 40.2347 30.9298 39.9791 32.7962 40.2614C33.8563 40.4218 34.8655 40.4482 35.9372 40.4321C39.4439 40.3795 43.573 40.3251 37.0062 40.4111C36.4473 40.4184 27.7401 40.7177 32.2174 41.2701C37.0496 41.8662 42.0607 41.0969 46.8702 40.6244C49.0256 40.4127 55.356 40.4425 53.3071 39.7407C51.1335 38.9962 47.388 39.9591 45.1156 40.1458C41.973 40.404 38.45 40.5221 35.4269 41.3902C35.0545 41.4971 40.8195 42.3552 41.7379 42.3449C50.9528 42.2414 60.1871 40.7267 69.3421 39.8217C71.1467 39.6433 91.1332 37.3652 91.4215 38.5943C91.4717 38.8083 78.7179 42.1673 77.482 42.5756C76.6815 42.8401 71.2705 44.7639 71.694 44.8059C78.2677 45.4582 85.889 43.7912 92.4103 43.1287C97.8333 42.5778 93.1548 42.2882 91.4512 42.2224C84.7861 41.9649 78.2266 42.867 71.655 43.8561C66.0886 44.6939 60.4235 45.7946 54.7734 45.748C53.2604 45.7356 51.4656 46.1638 53.9056 45.6472C59.3244 44.5 64.9447 44.0641 70.4127 43.2114C79.847 41.7402 89.2502 40.0592 98.7897 39.4044C99.1419 39.3802 105.982 38.8563 104.732 38.5677C98.7534 37.1873 91.8664 38.8521 85.9147 39.7709C82.316 40.3266 78.5553 40.8171 75.0237 41.7165C73.6393 42.0691 79.014 42.3289 79.5413 42.2477C91.8181 40.3577 103.722 35.5003 116.187 34.9108C116.527 34.8947 118.078 35.0751 116.86 34.8908C113.63 34.4023 110.747 34.81 107.531 35.3675C103.979 35.9831 100.591 37.0615 97.0781 37.8361C96.6711 37.9259 91.4718 38.6707 94.2891 38.3582C100.397 37.6807 106.442 36.3925 112.512 35.4511C118.943 34.4537 126.122 32.4012 132.677 32.9901C134.438 33.1483 131.806 33.8658 131.686 33.9059C128.897 34.8309 126.04 35.6343 123.188 36.3353C116.025 38.0958 108.65 39.4485 101.373 40.6477C98.6606 41.0946 95.8497 41.4808 93.2093 42.2752C92.6422 42.4458 91.4178 42.7756 92.78 42.6974C100.374 42.2614 108.248 39.79 115.673 38.3045C126.815 36.0753 138.107 33.0867 149.472 32.2726C151.133 32.1536 155.881 31.0677 154.457 31.9305C150.898 34.0861 145.31 34.1099 141.367 35.1268C133.825 37.0716 126.303 39.248 118.886 41.6224C116.643 42.3406 114.434 43.1178 112.129 43.6148C112.081 43.6253 108.814 44.3561 109.541 44.6239C110.772 45.0777 112.69 44.5923 113.843 44.3613C117.962 43.5367 122.019 42.3656 126.105 41.4051C141.476 37.7928 157.134 34.1718 172.827 32.2735C175.563 31.9425 178.294 31.7834 181.046 31.6898C182.879 31.6274 181.934 31.5409 180.961 31.6465C173.354 32.4721 165.658 34.9474 158.232 36.7647C152.136 38.2565 146.013 39.6987 139.871 40.9906C136.571 41.6846 132.656 41.9338 129.477 43.0722C122.574 45.5435 143.844 40.1015 151.098 39.035C151.414 38.9886 156.824 38.5431 153.969 38.3731C145.584 37.8738 137.213 40.2175 128.934 41.224C116.667 42.7154 104.582 43.9956 92.3162 42.1401C90.3671 41.8452 96.2391 42.5738 98.2095 42.6357C104.907 42.8463 111.871 41.9539 118.523 42.8159C120.781 43.1085 119.012 42.8764 117.749 42.6988C112.433 41.9511 107.385 42.5103 102.062 42.7313C99.6036 42.8335 97.0809 43.0267 94.6212 43.0064C92.9579 42.9927 97.955 42.9309 99.6014 42.694C105.534 41.8405 112.475 40.2567 118.498 41.1678C123.68 41.9518 108.01 40.1257 102.787 40.5572C102.194 40.6062 101.266 40.7534 102.367 40.9199C104.739 41.2788 106.906 40.577 109.257 40.2571C114.85 39.4963 120.67 38.6601 126.32 38.5753C128.627 38.5407 133.227 39.0112 133.227 39.0112C133.227 39.0112 129.326 38.6915 127.371 38.6734C120.227 38.6071 113.157 39.7864 106.074 40.5673C102.753 40.9334 99.2825 41.4319 95.9406 41.5312C94.9512 41.5606 94.7782 41.4163 95.8125 41.5728C102.441 42.5755 109.07 43.5782 115.698 44.581C115.837 44.6021 121.573 45.4697 119.628 45.1754C113.909 44.3104 108.43 45.2797 102.727 45.7856C98.6927 46.1434 94.6844 46.4419 90.6376 46.3928C89.5207 46.3792 87.2657 46.6182 89.7563 46.3812C114.031 44.0721 138.064 41.3418 162.491 40.8193C168.826 40.6838 175.408 40.1255 181.728 40.8671C184.321 41.1714 180.102 40.6211 179.852 40.5834C170.672 39.1947 162.036 41.5538 153.168 43.672C140.907 46.6004 177.47 36.9642 189.676 33.8175C194.519 32.569 199.428 32.0089 204.275 30.9104C207.71 30.1319 197.244 31.4011 193.75 31.8456C186.645 32.7494 179.703 34.2584 172.71 35.6662C171.553 35.8989 175.23 35.6755 175.427 35.6204C188.736 31.8979 201.953 27.8406 215.34 24.3931C222.65 22.5107 230.247 20.1304 237.788 19.3237C239.792 19.1093 233.942 20.5424 231.987 21.0345C215.709 25.1322 199.392 29.071 183.128 33.2228C180.553 33.8801 175.683 35.5528 180.901 34.2561C191.768 31.5557 202.492 28.3249 213.338 25.5518C219.651 23.9376 226.112 22.4743 232.542 21.3925C237.214 20.6063 223.162 22.8172 218.55 23.9044C199.925 28.2948 181.802 34.4542 163.089 38.4738C162.923 38.5095 159.891 39.4382 161.081 39.2663C167.527 38.3352 174.004 35.9988 180.366 34.5711C187.341 33.0059 194.352 31.4612 201.51 31.0707C207.253 30.7574 199.246 31.8245 197.921 32.0503C179.447 35.1983 160.957 36.7534 142.226 35.6832C141.495 35.6414 136.212 35.1107 137.274 35.2081C148.869 36.2706 160.67 34.3901 172.177 33.1496C182.665 32.0189 193.143 30.7378 203.662 29.9345C204.161 29.8964 210.886 29.6746 210.851 29.7127C210.219 30.407 207.668 30.8576 207.025 31.0523C203.698 32.0589 200.369 33.054 197.02 33.9845C192.465 35.2499 187.895 36.6787 183.221 37.439C168.186 39.8844 213.401 33.2341 228.552 31.6597C239.347 30.5381 250.253 29.6924 261.113 30.1908C262.316 30.246 265.779 30.2673 264.681 30.761C260.969 32.4286 255.893 32.7345 251.96 33.526C231.797 37.5846 211.492 43.3612 191.038 45.7469C189.988 45.8693 184.957 46.7841 188.625 45.595C199.771 41.9814 210.911 38.4101 222.216 35.2992C230.064 33.1397 238.028 31.6449 246.051 30.3179C246.896 30.1781 251.842 30.0083 250.784 30.029C242.004 30.2015 233.61 32.2032 225.054 34.0537C211.578 36.9685 198.021 39.6759 184.599 42.8239C183.953 42.9754 179.238 43.5371 178.976 44.1657C178.807 44.5708 179.861 44.2045 180.292 44.1212C183.381 43.5244 186.418 42.496 189.396 41.5094C209.366 34.8928 230.206 28.1901 251.167 25.4889C253.798 25.1497 250.704 25.2837 249.77 25.4603C237.771 27.7291 225.864 31.9327 214.23 35.5527C205.764 38.1872 197.254 41.168 188.524 42.8393C186.483 43.23 180.405 44.5966 186.527 43.3593C213.761 37.8552 240.671 30.3703 268.151 26.1398C273.467 25.3214 266.08 26.3423 265.132 26.5663C255.492 28.8454 245.875 31.2286 236.207 33.3962C231.672 34.4131 227.042 35.3605 222.424 35.9396C219.494 36.3071 228.244 34.8981 231.1 34.1461C244.72 30.5593 258.331 26.9682 272.082 23.9027C277.911 22.6033 285.523 20.1648 291.648 20.7725C292.746 20.8815 285.345 22.9895 284.585 23.1754C274.698 25.5945 264.746 27.4795 254.701 29.099C250.665 29.7497 245.972 29.8936 242.043 31.0513C238.732 32.0266 248.822 29.7058 252.136 28.7415C259.377 26.6346 266.349 23.7386 273.562 21.5687C274.42 21.3106 281.186 20.0891 279.753 20.4956C270.588 23.0963 242.719 29.4725 251.953 27.1305C257.324 25.7683 262.746 24.5795 268.09 23.1161C270.409 22.4813 273.043 21.2467 275.503 21.6188C275.929 21.6833 274.691 21.9084 274.282 22.043C271.489 22.9616 268.717 23.9456 265.934 24.891C259.421 27.1032 252.88 29.639 246.163 31.1875C245.77 31.2782 241.687 31.6381 243.865 31.0833C250.001 29.5205 256.112 27.8133 262.273 26.3469C265.483 25.5827 269.847 24.1127 273.222 24.6232C274.183 24.7687 271.323 25.0507 270.38 25.2896C263.353 27.0698 256.404 29.1702 249.409 31.0694C240.21 33.5667 228.473 38.0727 218.642 36.5855C218.237 36.5242 219.458 36.4974 219.857 36.4039C222.243 35.8442 224.583 34.9827 226.913 34.2436C241.948 29.4749 257.199 24.8228 272.683 21.7403C275.343 21.2108 278.035 20.7197 280.721 20.3376C281.701 20.1981 283.975 19.2904 283.69 20.2385C283.628 20.4442 283.325 20.4697 283.125 20.549C282.172 20.9276 278.258 22.1694 277.963 22.265C270.482 24.6904 263.052 27.2631 255.581 29.7194C239.255 35.0876 222.821 38.6179 205.654 39.31C204.794 39.3447 202.918 39.5954 204.779 39.0558C212.642 36.7754 220.218 33.0759 227.841 30.121C234.173 27.6667 240.389 25.4827 247.01 23.9771C260.371 20.9389 220.483 30.8814 207.096 33.8035C204.081 34.4616 194.984 36.1807 198.02 35.6278C199.542 35.3505 201.081 35.1485 202.607 34.8906C209.73 33.687 216.831 32.4093 223.941 31.1448C224.936 30.9679 227.937 30.6358 226.962 30.9015C222.019 32.2489 216.933 33.1578 211.966 34.4185C194.41 38.8747 177.22 44.6793 159.655 49.0991C154.308 50.4443 148.876 51.3324 143.353 51.3833C143.036 51.3862 142.047 51.3564 143.147 51.1388C146.876 50.4007 150.485 49.556 154.146 48.4788C164.691 45.376 175.096 41.8545 185.762 39.1631C189.322 38.2648 200.107 36.8892 196.454 36.5176C189.433 35.8032 181.556 38.0216 174.691 39.0719C159.061 41.4632 143.363 44.384 127.567 45.4325C126.118 45.5286 114.671 44.6589 113.792 45.9066C113.224 46.7126 115.755 46.1323 116.741 46.1395C121.747 46.1762 126.63 45.4366 131.506 44.3536C141.462 42.1423 151.407 39.7494 161.523 38.3587C163.682 38.062 165.863 37.8761 168.038 37.7609C168.958 37.7122 171.719 37.6639 170.799 37.6304C150.985 36.9099 131.542 44.6066 111.838 45.9458C111.265 45.9847 104.363 45.6727 106.6 45.9452C115.055 46.9746 124.104 45.1896 132.522 44.4769C138.669 43.9566 144.724 43.5811 150.89 43.6319C157.14 43.6834 146.397 43.217 145.558 43.2516C126.949 44.0179 108.331 47.3096 89.7533 48.8168C87.5787 48.9932 94.0904 49.3653 96.2717 49.407C111.625 49.7005 126.9 47.9038 142.198 46.9454C148.992 46.5197 155.879 46.1448 162.692 46.3308C162.933 46.3374 163.647 46.4178 163.407 46.4389C159.553 46.7777 155.734 47.4983 151.917 48.1113C147.26 48.8594 142.529 50.1633 137.837 50.6097C132.826 51.0863 139.698 50.6956 140.984 50.5377C150.533 49.365 159.991 47.6014 169.602 46.9498C174.051 46.6482 179.055 45.9438 183.507 46.6173C183.555 46.6245 178.777 46.1182 177.644 46.1262C168.59 46.1904 159.586 48.0211 150.603 48.9478C146.675 49.3531 142.752 49.4302 138.812 49.6001C136.877 49.6834 143.228 48.5647 143.36 48.5219C160.496 42.9665 178.282 34.1929 196.701 34.4843C198.182 34.5077 199.23 34.8285 196.935 34.9461C187.034 35.4533 177.169 35.8857 167.304 36.9799C162.197 37.5464 147.024 39.0791 152.128 39.6779C154.892 40.0023 157.877 38.6124 160.487 37.9585C167.26 36.2616 174.176 34.3432 181.063 33.1845C181.533 33.1053 186.387 32.5412 185.201 32.8055C175.936 34.8694 167.103 38.4034 158.009 41.0549C154.322 42.1299 150.557 42.9586 146.814 43.807C145.095 44.1965 146.681 43.7028 147.399 43.5606C157.535 41.5541 167.886 39.0897 178.3 39.3741C180.542 39.4354 180.32 39.4192 178.062 39.3381C170.821 39.0782 163.66 40.7099 156.518 41.6515C155.484 41.7878 150.929 42.8049 154.702 41.9857C170.279 38.6028 185.542 33.5833 200.932 29.4606C210 27.0315 237.427 20.8668 228.54 23.893C224.107 25.4027 210.236 27.8264 214.866 27.1229C219.257 26.4557 223.599 24.9822 227.855 23.7894C238.249 20.8764 248.741 18.0225 259.409 16.2914C261.37 15.9733 267.14 14.885 265.341 15.7271C264.681 16.036 262.654 16.1456 262.126 16.2457C257.696 17.0859 253.293 18.0325 248.838 18.742C245.102 19.3368 241.053 19.2469 237.405 20.2403C237.118 20.3187 236.364 20.6036 237.219 20.6688C240.183 20.8952 243.282 20.4742 246.188 19.955C253.734 18.6065 261.212 16.9109 268.786 15.7002C270.111 15.4884 271.476 15.2478 272.823 15.1841C274.383 15.1103 269.75 15.7602 268.233 16.1342C264.192 17.1304 251.936 19.5256 255.988 18.5753C264.669 16.5394 273.331 11.1405 282.329 10.7149C286.339 10.5253 274.802 13.5117 270.995 14.7859C267.125 16.081 263.247 17.3482 259.323 18.4708C258.495 18.7076 248.222 21.4324 254.981 19.3973C269.722 14.9588 284.513 10.6723 299.303 6.40094C304.384 4.93359 319.553 0.349029 314.611 2.23076C303.509 6.45763 292.158 10.1124 280.964 14.1016C278.757 14.8883 272.107 17.1713 274.336 16.4485C281.98 13.9704 289.417 10.9034 297.03 8.34089C299.666 7.45396 302.445 6.22542 305.23 5.86644C305.92 5.77753 303.89 6.24837 303.245 6.51007C297.984 8.64615 292.955 11.3644 287.831 13.8005C282.127 16.5121 276.364 19.1207 270.614 21.7318C266.621 23.5447 273.33 20.8228 273.978 20.6269C282.567 18.0311 291.135 15.2803 299.881 13.2483C300.868 13.0189 303.684 12.435 302.918 13.0988C299.769 15.8282 294.396 17.3098 290.691 19.0444C284.711 21.8441 278.723 25.1834 272.409 27.1798C268.822 28.3138 275.085 25.7953 275.582 25.5283C280.51 22.8781 285.466 19.9037 290.755 18.0187C294.196 16.7926 292.541 17.097 289.823 17.9387C278.572 21.4235 267.744 26.0548 256.423 29.39C249.791 31.3437 269.251 24.2203 275.765 21.902C276.973 21.4718 280.799 20.9135 279.535 21.1325C274.394 22.0236 269.481 23.2851 264.399 24.5675C259.355 25.8404 254.259 26.8088 249.258 28.2451C246.857 28.9344 254.625 25.7079 254.93 25.571C260.618 23.0186 266.207 20.4302 272.098 18.3632C273.04 18.0327 277.238 17.0009 277.112 17.0206C270.691 18.0288 264.462 21.3182 258.383 23.4747C257.182 23.901 245.906 29.0955 244.223 27.9098C242.902 26.9791 247.307 26.9431 248.855 26.479C252.812 25.2925 256.738 24.0231 260.659 22.7228C264.977 21.2911 269.278 19.7772 273.676 18.6018C274.863 18.2845 278.924 18.1189 279.917 17.2013C281.097 16.1112 276.705 17.5057 275.15 17.9114C271.015 18.991 267.048 20.5842 263.066 22.1124C257.961 24.0711 252.837 25.6991 247.609 27.265C247.024 27.4402 254.869 24.5629 255.613 24.2737C265.887 20.2792 275.838 15.5687 286.528 12.7508C287.824 12.4093 290.757 10.8791 290.509 12.196C290.304 13.2889 286.524 15.0155 285.987 15.3182C283.15 16.9186 274.348 21.1576 277.348 19.8882C281.998 17.9208 286.437 15.2161 290.896 12.8634C291.23 12.6871 299.019 8.7226 298.602 9.82711C298.074 11.2238 295.22 12.2362 294.101 13.0133C291.469 14.84 288.911 16.6946 286.217 18.4284C284.096 19.7935 282.096 21.3605 280.066 22.8572C279.134 23.5442 278.801 23.6156 280.113 23.3515C284.022 22.5647 287.886 21.1543 291.388 19.2715C295.124 17.2625 298.671 14.9847 302.534 13.2233C303.617 12.7297 303.484 12.2721 303.772 11.2791C304.145 9.99554 307.005 5.26658 306.05 6.08184C302.448 9.15646 298.881 16.189 293.832 17.2053C293.111 17.3505 293.031 16.8661 293.115 16.3052C293.366 14.6517 293.772 14.3522 295.301 13.5299C299.632 11.2012 303.91 8.44563 307.485 5.05045C312.204 0.568707 297.471 13.4347 291.936 16.8575C287.869 19.3724 284.519 23.165 280.759 26.1288C277.064 29.0406 277.994 26.1433 280.478 24.5638C285.057 21.6518 292.693 16.4928 298.289 16.3265C299.079 16.303 292.386 20.2059 291.314 20.9656C289.116 22.5242 286.888 24.0537 284.701 25.629C282.457 27.2461 282.605 26.4469 284.357 24.4808C286.981 21.5371 290.672 19.3458 293.891 17.2143C300.363 12.9302 306.974 8.86736 313.509 4.68281C316.201 2.95906 313.588 4.33391 312.942 4.81014" stroke="#3EB37F" stroke-opacity="0.7" stroke-width="3" stroke-linecap="round"/>
</svg>
