<svg width="73" height="91" viewBox="0 0 73 91" fill="none" xmlns="http://www.w3.org/2000/svg">
<rect width="3" height="3" rx="1" fill="#72FFFF"/>
<rect y="32" width="3" height="3" rx="1" fill="#72FFFF"/>
<rect y="64" width="3" height="3" rx="1" fill="#72FFFF"/>
<rect y="16" width="3" height="3" rx="1" fill="#72FFFF"/>
<rect y="48" width="3" height="3" rx="1" fill="#72FFFF"/>
<rect y="80" width="3" height="3" rx="1" fill="#72FFFF"/>
<rect y="8" width="3" height="3" rx="1" fill="#72FFFF"/>
<rect y="40" width="3" height="3" rx="1" fill="#72FFFF"/>
<rect y="72" width="3" height="3" rx="1" fill="#72FFFF"/>
<rect y="24" width="3" height="3" rx="1" fill="#72FFFF"/>
<rect y="56" width="3" height="3" rx="1" fill="#72FFFF"/>
<rect y="88" width="3" height="3" rx="1" fill="#72FFFF"/>
<rect x="28" width="3" height="3" rx="1" fill="#72FFFF"/>
<rect x="28" y="32" width="3" height="3" rx="1" fill="#72FFFF"/>
<rect x="28" y="64" width="3" height="3" rx="1" fill="#72FFFF"/>
<rect x="28" y="16" width="3" height="3" rx="1" fill="#72FFFF"/>
<rect x="28" y="48" width="3" height="3" rx="1" fill="#72FFFF"/>
<rect x="28" y="80" width="3" height="3" rx="1" fill="#72FFFF"/>
<rect x="28" y="8" width="3" height="3" rx="1" fill="#72FFFF"/>
<rect x="28" y="40" width="3" height="3" rx="1" fill="#72FFFF"/>
<rect x="28" y="72" width="3" height="3" rx="1" fill="#72FFFF"/>
<rect x="28" y="24" width="3" height="3" rx="1" fill="#72FFFF"/>
<rect x="28" y="56" width="3" height="3" rx="1" fill="#72FFFF"/>
<rect x="28" y="88" width="3" height="3" rx="1" fill="#72FFFF"/>
<rect x="14" width="3" height="3" rx="1" fill="#72FFFF"/>
<rect x="14" y="32" width="3" height="3" rx="1" fill="#72FFFF"/>
<rect x="14" y="64" width="3" height="3" rx="1" fill="#72FFFF"/>
<rect x="14" y="16" width="3" height="3" rx="1" fill="#72FFFF"/>
<rect x="14" y="48" width="3" height="3" rx="1" fill="#72FFFF"/>
<rect x="14" y="80" width="3" height="3" rx="1" fill="#72FFFF"/>
<rect x="14" y="8" width="3" height="3" rx="1" fill="#72FFFF"/>
<rect x="14" y="40" width="3" height="3" rx="1" fill="#72FFFF"/>
<rect x="14" y="72" width="3" height="3" rx="1" fill="#72FFFF"/>
<rect x="14" y="24" width="3" height="3" rx="1" fill="#72FFFF"/>
<rect x="14" y="56" width="3" height="3" rx="1" fill="#72FFFF"/>
<rect x="14" y="88" width="3" height="3" rx="1" fill="#72FFFF"/>
<rect x="42" width="3" height="3" rx="1" fill="#72FFFF"/>
<rect x="42" y="32" width="3" height="3" rx="1" fill="#72FFFF"/>
<rect x="42" y="64" width="3" height="3" rx="1" fill="#72FFFF"/>
<rect x="42" y="16" width="3" height="3" rx="1" fill="#72FFFF"/>
<rect x="42" y="48" width="3" height="3" rx="1" fill="#72FFFF"/>
<rect x="42" y="80" width="3" height="3" rx="1" fill="#72FFFF"/>
<rect x="42" y="8" width="3" height="3" rx="1" fill="#72FFFF"/>
<rect x="42" y="40" width="3" height="3" rx="1" fill="#72FFFF"/>
<rect x="42" y="72" width="3" height="3" rx="1" fill="#72FFFF"/>
<rect x="42" y="24" width="3" height="3" rx="1" fill="#72FFFF"/>
<rect x="42" y="56" width="3" height="3" rx="1" fill="#72FFFF"/>
<rect x="42" y="88" width="3" height="3" rx="1" fill="#72FFFF"/>
<rect x="63" width="3" height="3" rx="1" fill="#72FFFF"/>
<rect x="63" y="32" width="3" height="3" rx="1" fill="#72FFFF"/>
<rect x="63" y="64" width="3" height="3" rx="1" fill="#72FFFF"/>
<rect x="63" y="16" width="3" height="3" rx="1" fill="#72FFFF"/>
<rect x="63" y="48" width="3" height="3" rx="1" fill="#72FFFF"/>
<rect x="63" y="80" width="3" height="3" rx="1" fill="#72FFFF"/>
<rect x="63" y="8" width="3" height="3" rx="1" fill="#72FFFF"/>
<rect x="63" y="40" width="3" height="3" rx="1" fill="#72FFFF"/>
<rect x="63" y="72" width="3" height="3" rx="1" fill="#72FFFF"/>
<rect x="63" y="24" width="3" height="3" rx="1" fill="#72FFFF"/>
<rect x="63" y="56" width="3" height="3" rx="1" fill="#72FFFF"/>
<rect x="63" y="88" width="3" height="3" rx="1" fill="#72FFFF"/>
<rect x="7" width="3" height="3" rx="1" fill="#72FFFF"/>
<rect x="7" y="32" width="3" height="3" rx="1" fill="#72FFFF"/>
<rect x="7" y="64" width="3" height="3" rx="1" fill="#72FFFF"/>
<rect x="7" y="16" width="3" height="3" rx="1" fill="#72FFFF"/>
<rect x="7" y="48" width="3" height="3" rx="1" fill="#72FFFF"/>
<rect x="7" y="80" width="3" height="3" rx="1" fill="#72FFFF"/>
<rect x="7" y="8" width="3" height="3" rx="1" fill="#72FFFF"/>
<rect x="7" y="40" width="3" height="3" rx="1" fill="#72FFFF"/>
<rect x="7" y="72" width="3" height="3" rx="1" fill="#72FFFF"/>
<rect x="7" y="24" width="3" height="3" rx="1" fill="#72FFFF"/>
<rect x="7" y="56" width="3" height="3" rx="1" fill="#72FFFF"/>
<rect x="7" y="88" width="3" height="3" rx="1" fill="#72FFFF"/>
<rect x="35" width="3" height="3" rx="1" fill="#72FFFF"/>
<rect x="35" y="32" width="3" height="3" rx="1" fill="#72FFFF"/>
<rect x="35" y="64" width="3" height="3" rx="1" fill="#72FFFF"/>
<rect x="35" y="16" width="3" height="3" rx="1" fill="#72FFFF"/>
<rect x="35" y="48" width="3" height="3" rx="1" fill="#72FFFF"/>
<rect x="35" y="80" width="3" height="3" rx="1" fill="#72FFFF"/>
<rect x="35" y="8" width="3" height="3" rx="1" fill="#72FFFF"/>
<rect x="35" y="40" width="3" height="3" rx="1" fill="#72FFFF"/>
<rect x="35" y="72" width="3" height="3" rx="1" fill="#72FFFF"/>
<rect x="35" y="24" width="3" height="3" rx="1" fill="#72FFFF"/>
<rect x="35" y="56" width="3" height="3" rx="1" fill="#72FFFF"/>
<rect x="35" y="88" width="3" height="3" rx="1" fill="#72FFFF"/>
<rect x="56" width="3" height="3" rx="1" fill="#72FFFF"/>
<rect x="56" y="32" width="3" height="3" rx="1" fill="#72FFFF"/>
<rect x="56" y="64" width="3" height="3" rx="1" fill="#72FFFF"/>
<rect x="56" y="16" width="3" height="3" rx="1" fill="#72FFFF"/>
<rect x="56" y="48" width="3" height="3" rx="1" fill="#72FFFF"/>
<rect x="56" y="80" width="3" height="3" rx="1" fill="#72FFFF"/>
<rect x="56" y="8" width="3" height="3" rx="1" fill="#72FFFF"/>
<rect x="56" y="40" width="3" height="3" rx="1" fill="#72FFFF"/>
<rect x="56" y="72" width="3" height="3" rx="1" fill="#72FFFF"/>
<rect x="56" y="24" width="3" height="3" rx="1" fill="#72FFFF"/>
<rect x="56" y="56" width="3" height="3" rx="1" fill="#72FFFF"/>
<rect x="56" y="88" width="3" height="3" rx="1" fill="#72FFFF"/>
<rect x="21" width="3" height="3" rx="1" fill="#72FFFF"/>
<rect x="21" y="32" width="3" height="3" rx="1" fill="#72FFFF"/>
<rect x="21" y="64" width="3" height="3" rx="1" fill="#72FFFF"/>
<rect x="21" y="16" width="3" height="3" rx="1" fill="#72FFFF"/>
<rect x="21" y="48" width="3" height="3" rx="1" fill="#72FFFF"/>
<rect x="21" y="80" width="3" height="3" rx="1" fill="#72FFFF"/>
<rect x="21" y="8" width="3" height="3" rx="1" fill="#72FFFF"/>
<rect x="21" y="40" width="3" height="3" rx="1" fill="#72FFFF"/>
<rect x="21" y="72" width="3" height="3" rx="1" fill="#72FFFF"/>
<rect x="21" y="24" width="3" height="3" rx="1" fill="#72FFFF"/>
<rect x="21" y="56" width="3" height="3" rx="1" fill="#72FFFF"/>
<rect x="21" y="88" width="3" height="3" rx="1" fill="#72FFFF"/>
<rect x="49" width="3" height="3" rx="1" fill="#72FFFF"/>
<rect x="49" y="32" width="3" height="3" rx="1" fill="#72FFFF"/>
<rect x="49" y="64" width="3" height="3" rx="1" fill="#72FFFF"/>
<rect x="49" y="16" width="3" height="3" rx="1" fill="#72FFFF"/>
<rect x="49" y="48" width="3" height="3" rx="1" fill="#72FFFF"/>
<rect x="49" y="80" width="3" height="3" rx="1" fill="#72FFFF"/>
<rect x="49" y="8" width="3" height="3" rx="1" fill="#72FFFF"/>
<rect x="49" y="40" width="3" height="3" rx="1" fill="#72FFFF"/>
<rect x="49" y="72" width="3" height="3" rx="1" fill="#72FFFF"/>
<rect x="49" y="24" width="3" height="3" rx="1" fill="#72FFFF"/>
<rect x="49" y="56" width="3" height="3" rx="1" fill="#72FFFF"/>
<rect x="49" y="88" width="3" height="3" rx="1" fill="#72FFFF"/>
<rect x="70" width="3" height="3" rx="1" fill="#72FFFF"/>
<rect x="70" y="32" width="3" height="3" rx="1" fill="#72FFFF"/>
<rect x="70" y="64" width="3" height="3" rx="1" fill="#72FFFF"/>
<rect x="70" y="16" width="3" height="3" rx="1" fill="#72FFFF"/>
<rect x="70" y="48" width="3" height="3" rx="1" fill="#72FFFF"/>
<rect x="70" y="80" width="3" height="3" rx="1" fill="#72FFFF"/>
<rect x="70" y="8" width="3" height="3" rx="1" fill="#72FFFF"/>
<rect x="70" y="40" width="3" height="3" rx="1" fill="#72FFFF"/>
<rect x="70" y="72" width="3" height="3" rx="1" fill="#72FFFF"/>
<rect x="70" y="24" width="3" height="3" rx="1" fill="#72FFFF"/>
<rect x="70" y="56" width="3" height="3" rx="1" fill="#72FFFF"/>
<rect x="70" y="88" width="3" height="3" rx="1" fill="#72FFFF"/>
</svg>
